<svg width="64" height="64" viewBox="0 0 64 64" xmlns="http://www.w3.org/2000/svg" role="img">
  <title>SUSLIVA icon mark</title>
  <desc>SUSLIVA hands and leaf icon mark</desc>

  <!-- Background circle -->
  <circle cx="32" cy="32" r="32" fill="#1B4332"/>

  <!-- Inner circle -->
  <circle cx="32" cy="32" r="26" fill="#2D6A4F"/>

  <!-- Hands -->
  <path d="M18 40 C18 26, 32 20, 32 20 C32 20, 46 26, 46 40" fill="none" stroke="#B7E4C7" stroke-width="2.5" stroke-linecap="round"/>
  <path d="M21 43 C21 35, 32 31, 32 31" fill="none" stroke="#B7E4C7" stroke-width="2.5" stroke-linecap="round"/>
  <path d="M43 43 C43 35, 32 31, 32 31" fill="none" stroke="#B7E4C7" stroke-width="2.5" stroke-linecap="round"/>
  <line x1="32" y1="20" x2="32" y2="44" stroke="#B7E4C7" stroke-width="2" stroke-linecap="round"/>

  <!-- Leaf -->
  <path d="M32 10 C35 4, 42 4, 42 10 C42 16, 32 18, 32 20 C32 18, 22 16, 22 10 C22 4, 29 4, 32 10Z" fill="#B7E4C7"/>
</svg>
